# xmcd
#
# Track frame offsets:
#	150
#	10566
#	24196
#	37284
#	49773
#	61742
#	75330
#	89983
#	103438
#	117140
#	132115
#	144742
#
# Disc length: 2093 seconds
#
# Revision: 0
# Processed by: cddbd v1.5.1PL2 Copyright (c) Steve Scherf et al.
# Submitted via: dBpowerAMP V4.0
#
DISCID=9c082b0c
DTITLE=Various Artist - Shoutin' The Blues [CD2]
DYEAR=1900
DGENRE=Blues
TTITLE0=Robert Johnson - Stop Breaking Down Blues
TTITLE1=Blind Lemon Jefferson - Black Snake Moan
TTITLE2=Sonny Boy Williamson - Thinking My Blues Away
TTITLE3=Big Bill Broonzy - I Can't Be Satisfied
TTITLE4=Lonnie Johnson - Crowing Rooster Blues
TTITLE5=Josh White - Outskirts of Town
TTITLE6=Blind Boy Fuller - Working Man Blues
TTITLE7=Meade Lux Lewis - Honky Tonk Train Blues
TTITLE8=Tampa Red - Seminole Blues
TTITLE9=Blind Willie McTell - Travelin' Blues
TTITLE10=Bukka White - Fixin' To Die
TTITLE11=George White - Dead Man Blues
EXTD=
EXTT0=
EXTT1=
EXTT2=
EXTT3=
EXTT4=
EXTT5=
EXTT6=
EXTT7=
EXTT8=
EXTT9=
EXTT10=
EXTT11=
PLAYORDER=
